PathFileType	3	(X/Y/Z)	squats_1__view2_aligned.trc
DataRate	CameraRate	NumFrames	NumMarkers	Units	OrigDataRate	OrigDataStartFrame	OrigNumFrames
100.0	100.0	15	19	mm	100.0	123	1660
Frame#	Time	pelvis			neck			head			hip_left			hip_right			knee_left			knee_right			ankle_left			ankle_right			heel_left			heel_right			toe_left			toe_right			shoulder_left			shoulder_right			elbow_left			elbow_right			wrist_left			wrist_right			
		X1	Y1	Z1	X2	Y2	Z2	X3	Y3	Z3	X4	Y4	Z4	X5	Y5	Z5	X6	Y6	Z6	X7	Y7	Z7	X8	Y8	Z8	X9	Y9	Z9	X10	Y10	Z10	X11	Y11	Z11	X12	Y12	Z12	X13	Y13	Z13	X14	Y14	Z14	X15	Y15	Z15	X16	Y16	Z16	X17	Y17	Z17	X18	Y18	Z18	X19	Y19	Z19	
123	1.22000	121.674701	961.747512	-29.219907	89.132569	1516.444866	-36.335636	66.696015	1638.987595	-152.217136	50.128324	954.743841	-22.956543	193.221078	968.751184	-35.483270	5.700507	543.670154	-2.002782	236.795648	556.983211	-28.305192	-16.109713	167.154422	100.494303	271.123648	181.498923	75.351064	-12.838167	125.123090	138.405982	270.603101	138.311805	113.748424	-35.939643	93.275795	-74.373752	288.052516	115.066098	-100.659069	-68.279189	1473.983190	17.481699	262.614650	1455.275856	-23.487516	-179.391290	1211.678985	-29.879580	341.258889	1185.387865	-52.983895	-267.181408	1200.876027	-263.020233	256.336084	1191.223409	-272.653218
124	1.23000	121.319295	961.281871	-29.045009	88.382297	1515.992006	-36.101607	65.560519	1638.538320	-151.991434	49.771612	954.259080	-22.743111	192.867025	968.304661	-35.346900	5.379589	543.165621	-1.745149	236.432727	556.532844	-28.225129	-16.596837	166.511165	100.422481	270.922271	180.934754	75.124516	-13.400565	124.447480	138.319904	270.460963	137.703720	113.489862	-35.952558	92.693978	-74.483869	287.679019	114.627096	-100.954758	-69.527780	1473.297351	16.843814	262.335460	1455.218467	-23.961054	-178.355736	1210.994408	-32.602534	340.864836	1185.473668	-54.817762	-258.948589	1203.835126	-266.095309	250.822378	1193.061110	-272.178324
125	1.24000	120.963889	960.816229	-28.870111	87.632026	1515.539145	-35.867577	64.425023	1638.089045	-151.765731	49.414899	953.774320	-22.529679	192.512972	967.858139	-35.210529	5.058671	542.661088	-1.487515	236.069807	556.082477	-28.145066	-17.083961	165.867909	100.350659	270.720893	180.370584	74.897968	-13.962963	123.771870	138.233827	270.318825	137.095635	113.231300	-35.965472	92.112162	-74.593985	287.305522	114.188094	-101.250446	-70.776371	1472.611511	16.205928	262.056271	1455.161077	-24.434593	-177.320183	1210.309830	-35.325489	340.470783	1185.559471	-56.651630	-250.715771	1206.794225	-269.170385	245.308671	1194.898811	-271.703430
126	1.25000	120.608484	960.350587	-28.695213	86.881754	1515.086285	-35.633548	63.289527	1637.639771	-151.540028	49.058187	953.289560	-22.316247	192.158919	967.411616	-35.074158	4.737753	542.156555	-1.229882	235.706887	555.632110	-28.065003	-17.571085	165.224652	100.278838	270.519515	179.806415	74.671419	-14.525361	123.096259	138.147749	270.176687	136.487550	112.972739	-35.978387	91.530345	-74.704101	286.932025	113.749092	-101.546135	-72.024962	1471.925672	15.568042	261.777081	1455.103688	-24.908131	-176.284629	1209.625252	-38.048444	340.076731	1185.645275	-58.485498	-242.482952	1209.753324	-272.245460	239.794965	1196.736513	-271.228535
127	1.26000	120.253078	959.884946	-28.520315	86.131482	1514.633425	-35.399519	62.154030	1637.190496	-151.314325	48.701475	952.804800	-22.102815	191.804866	966.965094	-34.937788	4.416836	541.652022	-0.972249	235.343967	555.181744	-27.984940	-18.058209	164.581395	100.207016	270.318137	179.242246	74.444871	-15.087759	122.420649	138.061672	270.034549	135.879465	112.714177	-35.991302	90.948528	-74.814218	286.558528	113.310089	-101.841824	-73.273553	1471.239832	14.930157	261.497891	1455.046298	-25.381669	-175.249075	1208.940675	-40.771399	339.682678	1185.731078	-60.319366	-234.250133	1212.712422	-275.320536	234.281258	1198.574214	-270.753641
128	1.27000	119.897672	959.419304	-28.345417	85.381210	1514.180565	-35.165489	61.018534	1636.741221	-151.088622	48.344762	952.320040	-21.889383	191.450813	966.518571	-34.801417	4.095918	541.147489	-0.714616	234.981046	554.731377	-27.904877	-18.545333	163.938139	100.135194	270.116759	178.678077	74.218323	-15.650158	121.745039	137.975595	269.892410	135.271380	112.455615	-36.004217	90.366712	-74.924334	286.185032	112.871087	-102.137512	-74.522144	1470.553993	14.292271	261.218702	1454.988909	-25.855208	-174.213522	1208.256097	-43.494354	339.288625	1185.816881	-62.153234	-226.017315	1215.671521	-278.395612	228.767552	1200.411915	-270.278746
129	1.28000	119.542266	958.953663	-28.170519	84.630939	1513.727705	-34.931460	59.883038	1636.291947	-150.862919	47.988050	951.835280	-21.675951	191.096760	966.072048	-34.665047	3.775000	540.642956	-0.456983	234.618126	554.281010	-27.824814	-19.032457	163.294882	100.063372	269.915382	178.113907	73.991774	-16.212556	121.069428	137.889517	269.750272	134.663295	112.197054	-36.017132	89.784895	-75.034451	285.811535	112.432085	-102.433201	-75.770735	1469.868153	13.654385	260.939512	1454.931519	-26.328746	-173.177968	1207.571519	-46.217309	338.894572	1185.902684	-63.987102	-217.784496	1218.630620	-281.470687	223.253845	1202.249616	-269.803852
130	1.29000	119.186861	958.488021	-27.995621	83.880667	1513.274845	-34.697431	58.747542	1635.842672	-150.637217	47.631337	951.350519	-21.462519	190.742708	965.625526	-34.528676	3.454082	540.138423	-0.199350	234.255206	553.830643	-27.744751	-19.519581	162.651626	99.991551	269.714004	177.549738	73.765226	-16.774954	120.393818	137.803440	269.608134	134.055211	111.938492	-36.030047	89.203079	-75.144567	285.438038	111.993083	-102.728889	-77.019325	1469.182314	13.016499	260.660322	1454.874130	-26.802284	-172.142414	1206.886942	-48.940264	338.500519	1185.988488	-65.820970	-209.551677	1221.589719	-284.545763	217.740139	1204.087317	-269.328958
131	1.30000	118.831455	958.022379	-27.820723	83.130395	1512.821985	-34.463401	57.612046	1635.393397	-150.411514	47.274625	950.865759	-21.249087	190.388655	965.179003	-34.392306	3.133164	539.633890	0.058283	233.892286	553.380276	-27.664688	-20.006705	162.008369	99.919729	269.512626	176.985569	73.538678	-17.337352	119.718208	137.717362	269.465996	133.447126	111.679930	-36.042962	88.621262	-75.254683	285.064541	111.554081	-103.024578	-78.267916	1468.496474	12.378614	260.381132	1454.816740	-27.275823	-171.106861	1206.202364	-51.663219	338.106466	1186.074291	-67.654838	-201.318858	1224.548818	-287.620838	212.226432	1205.925019	-268.854063
132	1.31000	118.476049	957.556738	-27.645825	82.380123	1512.369125	-34.229372	56.476550	1634.944123	-150.185811	46.917913	950.380999	-21.035655	190.034602	964.732481	-34.255935	2.812246	539.129357	0.315916	233.529366	552.929909	-27.584625	-20.493829	161.365113	99.847907	269.311248	176.421400	73.312129	-17.899750	119.042597	137.631285	269.323858	132.839041	111.421369	-36.055877	88.039445	-75.364800	284.691044	111.115078	-103.320266	-79.516507	1467.810635	11.740728	260.101943	1454.759350	-27.749361	-170.071307	1205.517786	-54.386173	337.712413	1186.160094	-69.488706	-193.086040	1227.507916	-290.695914	206.712726	1207.762720	-268.379169
133	1.32000	118.120643	957.091096	-27.470927	81.629851	1511.916265	-33.995343	55.341054	1634.494848	-149.960108	46.561200	949.896239	-20.822223	189.680549	964.285958	-34.119564	2.491328	538.624824	0.573549	233.166445	552.479543	-27.504562	-20.980953	160.721856	99.776086	269.109871	175.857230	73.085581	-18.462148	118.366987	137.545207	269.181720	132.230956	111.162807	-36.068792	87.457629	-75.474916	284.317547	110.676076	-103.615955	-80.765098	1467.124795	11.102842	259.822753	1454.701961	-28.222899	-169.035753	1204.833209	-57.109128	337.318360	1186.245897	-71.322574	-184.853221	1230.467015	-293.770990	201.199019	1209.600421	-267.904274
134	1.33000	117.825345	956.776030	-27.290063	80.925584	1511.609117	-33.868152	54.350920	1634.204744	-149.832325	46.263695	949.561244	-20.618110	189.387457	963.990820	-33.961949	2.330955	538.239244	0.807158	232.876597	552.154354	-27.409779	-21.181428	160.210099	99.733418	268.946215	175.424446	72.907371	-18.714483	117.826662	137.490385	269.065815	131.759691	110.955296	-35.881842	87.006240	-75.549995	283.986097	110.349120	-103.849390	-81.831207	1466.554183	10.555481	259.454794	1454.776431	-28.558283	-168.160904	1204.177868	-58.968640	337.023492	1186.473134	-72.431619	-178.525156	1231.685619	-295.571671	197.558161	1210.269980	-267.187313
135	1.34000	117.530046	956.460963	-27.109199	80.221316	1511.301970	-33.740962	53.360787	1633.914641	-149.704542	45.966190	949.226249	-20.413997	189.094365	963.695682	-33.804334	2.170581	537.853664	1.040768	232.586749	551.829166	-27.314997	-21.381904	159.698342	99.690751	268.782560	174.991662	72.729162	-18.966818	117.286337	137.435563	268.949911	131.288427	110.747784	-35.694892	86.554852	-75.625074	283.654648	110.022164	-104.082825	-82.897316	1465.983571	10.008120	259.086835	1454.850902	-28.893667	-167.286055	1203.522527	-60.828152	336.728625	1186.700371	-73.540664	-172.197091	1232.904223	-297.372352	193.917303	1210.939539	-266.470351
136	1.35000	117.234748	956.145897	-26.928335	79.517048	1510.994822	-33.613772	52.370654	1633.624537	-149.576758	45.668685	948.891253	-20.209884	188.801273	963.400544	-33.646718	2.010207	537.468084	1.274377	232.296900	551.503977	-27.220215	-21.582380	159.186585	99.648083	268.618904	174.558877	72.550953	-19.219153	116.746012	137.380741	268.834007	130.817163	110.540273	-35.507942	86.103463	-75.700152	283.323198	109.695208	-104.316261	-83.963425	1465.412959	9.460759	258.718875	1454.925372	-29.229051	-166.411206	1202.867186	-62.687664	336.433757	1186.927607	-74.649709	-165.869025	1234.122828	-299.173033	190.276444	1211.609097	-265.753390
137	1.36000	116.939449	955.830830	-26.747471	78.812780	1510.687675	-33.486582	51.380521	1633.334433	-149.448975	45.371180	948.556258	-20.005771	188.508180	963.105406	-33.489103	1.849834	537.082504	1.507987	232.007052	551.178789	-27.125433	-21.782855	158.674828	99.605416	268.455249	174.126093	72.372743	-19.471488	116.205687	137.325919	268.718103	130.345899	110.332762	-35.320992	85.652074	-75.775231	282.991748	109.368252	-104.549696	-85.029534	1464.842347	8.913398	258.350916	1454.999842	-29.564436	-165.536357	1202.211845	-64.547176	336.138890	1187.154844	-75.758753	-159.540960	1235.341432	-300.973715	186.635586	1212.278656	-265.036428
